<svg xmlns="http://www.w3.org/2000/svg" viewBox="0 0 64 64">
  <defs>
    <linearGradient id="g" x1="0" x2="1" y1="0" y2="1">
      <stop offset="0" stop-color="#0b4b78"/>
      <stop offset="1" stop-color="#0e6ea8"/>
    </linearGradient>
  </defs>
  <rect width="64" height="64" rx="18" fill="url(#g)"/>
  <circle cx="47" cy="17" r="6" fill="#34d399" opacity=".95"/>
  <path d="M17 42V22h12c5 0 8 3 8 7 0 3-2 5-4 6l6 7h-8l-5-6h-3v6h-6Zm6-12h5c2 0 3-1 3-2s-1-2-3-2h-5v4Z" fill="white"/>
  <path d="M42 43c-6 0-10-4-10-10s4-10 10-10c4 0 7 2 9 5l-5 3c-1-2-2-3-4-3-3 0-5 2-5 5s2 5 5 5c2 0 3-1 4-3l5 3c-2 3-5 5-9 5Z" fill="white" opacity=".92"/>
</svg>
